<svg width="327" height="77" viewBox="0 0 327 77" fill="none" xmlns="http://www.w3.org/2000/svg">
<path d="M118.326 9.9043C131.771 9.9043 139.894 15.6504 142.485 25.3235L130.444 28.1966C128.973 22.9414 124.77 20.0635 118.326 20.0635C108.732 20.0635 103.553 26.3727 103.553 38.3558C103.553 50.3389 108.593 56.7877 118.047 56.7877C126.01 56.7877 131.031 52.312 131.805 44.5928H117.066V34.5058H143.957V40.8872C143.957 57.6347 134.224 66.9565 117.835 66.9565C101.591 66.9565 91.3677 55.8107 91.3677 38.3606C91.3677 20.9105 101.803 9.9043 118.326 9.9043ZM255.637 50.1994C255.637 55.0359 257.801 57.702 261.937 57.702C266.697 57.702 270.338 53.2842 270.338 47.2589V26.517H281.475V65.8977H270.338V59.2421C268.241 63.5156 263.197 66.6004 257.806 66.6004C249.193 66.6004 244.5 61.836 244.5 53.1446V26.5122H255.632L255.637 50.1994Z" fill="black"/>
<path fill-rule="evenodd" clip-rule="evenodd" d="M298.412 33.7356C300.677 28.9712 305.793 25.6024 310.948 25.6024C321.686 25.6024 327.356 33.0329 326.981 46.1374C327.361 59.1023 321.475 66.6001 310.948 66.6001C305.582 66.6001 300.677 63.5153 298.344 59.1023V65.8975H287.279V10.958H298.412V33.7356ZM307.024 34.9243C302.432 34.9243 298.787 39.4095 298.417 45.5743V46.2048C298.787 52.5813 302.432 57.2783 307.024 57.2783C312.795 57.2783 315.945 53.0048 315.57 46.1374C315.945 39.1978 312.795 34.9243 307.024 34.9243Z" fill="black"/>
<path d="M159.22 65.8976H148.16V26.5169H159.22V65.8976ZM181.514 26.5169H189.703V35.7665H181.514V53.6353C181.514 55.8058 182.49 56.6479 184.664 56.6479H189.703V65.8976H180.672C173.315 65.8976 170.449 62.7454 170.449 56.0849V35.7665H163.447V26.5121H170.449V18.6725L181.509 16.0737L181.514 26.5169ZM206.279 10.9581V33.2399H227.15V10.9581H239.052V65.8976H227.145V43.8948H206.275V65.8976H194.373V10.9581H206.279ZM153.69 9.625C154.558 9.61269 155.42 9.77469 156.224 10.1014C157.028 10.4282 157.759 10.913 158.373 11.5272C158.986 12.1415 159.471 12.8727 159.797 13.6776C160.124 14.4825 160.286 15.3447 160.273 16.2133C160.286 17.0819 160.124 17.9442 159.797 18.749C159.471 19.5539 158.986 20.2851 158.373 20.8994C157.759 21.5136 157.028 21.9985 156.224 22.3252C155.42 22.6519 154.558 22.8139 153.69 22.8016C152.822 22.814 151.96 22.6518 151.155 22.3248C150.351 21.9977 149.62 21.5125 149.006 20.8977C148.392 20.2829 147.908 19.5512 147.582 18.7457C147.255 17.9403 147.094 17.0775 147.107 16.2085C147.095 15.3403 147.258 14.4786 147.584 13.6743C147.911 12.8699 148.396 12.1393 149.009 11.5256C149.623 10.9118 150.354 10.4274 151.157 10.101C151.961 9.77455 152.823 9.6127 153.69 9.625ZM32.5366 54.516C22.616 53.3129 15.6288 46.1711 15.6288 36.9215C15.6288 33.1629 16.9801 29.1012 19.2354 26.3918C18.2593 23.9133 18.4083 18.6484 19.5384 16.4684C22.5439 16.093 26.5978 17.6715 29.0022 19.8516C31.8586 18.9516 34.8641 18.4993 38.5477 18.4993C42.2264 18.4993 45.2319 18.9516 47.9393 19.7746C50.2668 17.6715 54.4024 16.093 57.4079 16.4684C58.4562 18.4993 58.6101 23.7593 57.6291 26.3196C60.0335 29.1734 61.3126 33.0089 61.3126 36.9215C61.3126 46.1711 54.3254 53.1637 44.2557 54.439C46.8092 56.0945 48.5356 59.7039 48.5356 63.8426V71.6629C48.5356 73.9152 50.4159 75.1953 52.6712 74.2954C66.2705 69.1027 76.9413 55.4881 76.9413 38.6444C76.9413 17.3731 59.6584 0 38.3938 0C17.134 0 0.000146581 17.3731 0.000146581 38.6492C-0.0214965 46.4384 2.35408 54.0453 6.80396 60.4359C11.2538 66.8265 17.5622 71.6908 24.8714 74.3676C26.9007 75.1183 28.8531 73.766 28.8531 71.7351V65.7195C27.8 66.1719 26.4487 66.4703 25.2465 66.4703C20.2886 66.4703 17.36 63.7656 15.2537 58.7269C14.4266 56.6961 13.5226 55.4929 11.7962 55.2668C10.8969 55.1946 10.594 54.8192 10.594 54.3668C10.594 53.4621 12.0991 52.7883 13.5995 52.7883C15.7779 52.7883 17.6581 54.1406 19.6105 56.9271C21.1157 59.1023 22.6882 60.0793 24.5684 60.0793C26.4487 60.0793 27.6509 59.4055 29.3773 57.673C30.6564 56.3977 31.6374 55.2668 32.5366 54.516Z" fill="black"/>
</svg>
