<svg width="450" height="103" viewBox="0 0 450 103" fill="none" xmlns="http://www.w3.org/2000/svg">
<rect width="450" height="103" rx="51.5" fill="#FF8D28"/>
<path d="M92.0569 36.8115H121.434C123.454 36.8115 125.106 38.464 125.106 40.4837V62.5164C125.106 64.5361 123.454 66.1886 121.434 66.1886H92.0569C90.0372 66.1886 88.3848 64.5361 88.3848 62.5164V40.4837C88.3848 38.464 90.0372 36.8115 92.0569 36.8115Z" stroke="white" stroke-width="1.83607" stroke-linecap="round" stroke-linejoin="round"/>
<path d="M125.106 40.4834L106.745 53.3359L88.3848 40.4834" stroke="white" stroke-width="1.83607" stroke-linecap="round" stroke-linejoin="round"/>
<path d="M205.985 39.7131C205.985 41.3656 205.985 43.018 205.985 44.6705C205.985 46.323 205.985 47.9754 205.985 49.6279C205.985 51.2803 205.985 52.9328 205.985 54.5852C205.985 56.2377 205.985 57.8902 205.985 59.5426C205.985 61.1951 205.985 62.8475 205.985 64.5H193.261C193.261 62.2086 193.261 59.9172 193.261 57.6258C193.261 55.3344 193.261 53.043 193.261 50.7515C193.261 50.7295 193.25 50.7185 193.228 50.7185C193.228 50.7185 193.217 50.7185 193.195 50.7185C193.195 50.7185 193.195 50.7295 193.195 50.7515L189.956 64.5H181.529C180.978 62.2086 180.438 59.9282 179.909 57.6588C179.381 55.3894 178.841 53.1201 178.29 50.8507C178.29 50.8287 178.279 50.8176 178.257 50.8176C178.257 50.8176 178.246 50.8176 178.224 50.8176C178.224 50.8176 178.224 50.8287 178.224 50.8507C178.224 53.1201 178.224 55.3894 178.224 57.6588C178.224 59.9282 178.224 62.2086 178.224 64.5H166.161C166.161 62.8475 166.161 61.1951 166.161 59.5426C166.161 57.8681 166.161 56.2047 166.161 54.5522C166.161 52.8777 166.161 51.2142 166.161 49.5618C166.161 47.8873 166.161 46.2238 166.161 44.5713C166.161 43.7561 166.161 42.9519 166.161 42.1588C166.161 41.3435 166.161 40.5283 166.161 39.7131H183.776C184.107 41.0791 184.426 42.4452 184.735 43.8112C185.043 45.1552 185.352 46.5102 185.66 47.8763C185.99 49.2423 186.31 50.6083 186.618 51.9744C186.618 51.9964 186.618 52.0184 186.618 52.0405C186.64 52.0405 186.651 52.0405 186.651 52.0405C186.674 52.0184 186.685 51.9964 186.685 51.9744L189.328 39.7131H205.985ZM234.18 39.7131C234.577 41.0791 234.962 42.4562 235.337 43.8443C235.733 45.2103 236.119 46.5873 236.494 47.9754C236.89 49.3414 237.287 50.7185 237.683 52.1066C238.08 53.4726 238.465 54.8496 238.84 56.2377C239.237 57.6037 239.622 58.9808 239.997 60.3689C240.393 61.7349 240.79 63.1119 241.186 64.5H226.447L225.885 61.2612C225.797 61.2612 225.719 61.2612 225.653 61.2612C225.587 61.2612 225.51 61.2612 225.422 61.2612H221.787C221.721 61.2612 221.654 61.2612 221.588 61.2612C221.522 61.2612 221.456 61.2612 221.39 61.2612L220.828 64.5H206.716C207.113 63.1119 207.498 61.7349 207.873 60.3689C208.27 58.9808 208.655 57.6037 209.03 56.2377C209.426 54.8496 209.812 53.4726 210.186 52.1066C210.583 50.7185 210.969 49.3414 211.343 47.9754C211.74 46.5873 212.125 45.2103 212.5 43.8443C212.896 42.4562 213.282 41.0791 213.657 39.7131H234.18ZM221.787 58.9147C221.787 58.9367 221.787 58.9477 221.787 58.9477C221.787 58.9477 221.798 58.9477 221.82 58.9477H225.455C225.477 58.9477 225.488 58.9477 225.488 58.9477C225.488 58.9257 225.488 58.9147 225.488 58.9147C225.488 58.9147 225.444 58.6503 225.356 58.1215C225.268 57.5707 225.147 56.8877 224.992 56.0725C224.86 55.2352 224.717 54.3539 224.563 53.4285C224.409 52.4811 224.265 51.5888 224.133 50.7515C224.001 49.9143 223.88 49.2313 223.77 48.7025C223.681 48.1737 223.637 47.9093 223.637 47.9093C223.637 47.9093 223.626 47.9093 223.604 47.9093C223.604 47.9093 223.56 48.1737 223.472 48.7025C223.384 49.2313 223.263 49.9143 223.109 50.7515C222.976 51.5888 222.833 52.4811 222.679 53.4285C222.525 54.3539 222.382 55.2352 222.249 56.0725C222.117 56.8877 222.007 57.5707 221.919 58.1215C221.831 58.6503 221.787 58.9147 221.787 58.9147ZM241.909 64.5C241.909 62.9136 241.909 61.3273 241.909 59.7409C241.909 58.1546 241.909 56.5682 241.909 54.9818C241.909 53.3955 241.909 51.8091 241.909 50.2228C241.909 48.6364 241.909 47.05 241.909 45.4637C241.909 44.4942 241.909 43.5358 241.909 42.5884C241.909 41.619 241.909 40.6605 241.909 39.7131H255.625C255.625 41.8503 255.625 43.9875 255.625 46.1247C255.625 48.2398 255.625 50.366 255.625 52.5031C255.625 53.8251 255.625 55.1581 255.625 56.5021C255.625 57.8241 255.625 59.157 255.625 60.501C255.625 61.823 255.625 63.156 255.625 64.5H241.909ZM270.665 54.7174C270.665 54.7395 270.665 54.7615 270.665 54.7835C270.687 54.7835 270.709 54.7835 270.731 54.7835H283.62V64.5H256.949C256.949 63.134 256.949 61.7679 256.949 60.4019C256.949 59.0359 256.949 57.6698 256.949 56.3038C256.949 54.9157 256.949 53.5387 256.949 52.1727C256.949 50.8066 256.949 49.4406 256.949 48.0746C256.949 46.6865 256.949 45.2984 256.949 43.9104C256.949 42.5003 256.949 41.1012 256.949 39.7131H270.665C270.665 40.969 270.665 42.2249 270.665 43.4807C270.665 44.7146 270.665 45.9594 270.665 47.2153C270.665 48.4711 270.665 49.727 270.665 50.9829C270.665 52.2167 270.665 53.4616 270.665 54.7174Z" fill="white"/>
<path d="M328.565 36.8115H357.942C359.962 36.8115 361.614 38.464 361.614 40.4837V62.5164C361.614 64.5361 359.962 66.1886 357.942 66.1886H328.565C326.546 66.1886 324.893 64.5361 324.893 62.5164V40.4837C324.893 38.464 326.546 36.8115 328.565 36.8115Z" stroke="white" stroke-width="1.83607" stroke-linecap="round" stroke-linejoin="round"/>
<path d="M361.614 40.4834L343.254 53.3359L324.893 40.4834" stroke="white" stroke-width="1.83607" stroke-linecap="round" stroke-linejoin="round"/>
</svg>
