<svg width="100" height="100" viewBox="0 0 100 100" fill="none" xmlns="http://www.w3.org/2000/svg">
<path d="M50 0L93.2734 25.0414V75.0102L50 100L6.72656 75.0094V25.0266L50 0Z" fill="#8F0000"/>
<path d="M50.018 4.14054C49.8765 4.1377 49.7369 4.17334 49.6141 4.24366L10.4735 26.8007C10.3563 26.8685 10.259 26.9659 10.1913 27.0831C10.1235 27.2003 10.0878 27.3333 10.0875 27.4687V72.5827C10.0875 72.8593 10.2344 73.1132 10.4735 73.2515L49.6141 95.8116C49.7315 95.8792 49.8646 95.9148 50 95.9148C50.1355 95.9148 50.2686 95.8792 50.386 95.8116L89.4656 73.2491C89.7047 73.1116 89.8742 72.8577 89.8742 72.5812V27.4687C89.8742 27.1929 89.7047 26.9382 89.4656 26.8007L50.386 4.24366C50.2739 4.17975 50.1477 4.14459 50.0188 4.14132L50.018 4.14054ZM50 5.8046L88.3281 27.914V52.3921H72.9727C70.2555 52.3921 67.9281 54.6616 67.9281 57.3788V58.0476C58.7 57.9788 55.9477 55.5905 52.5157 52.589C49.6625 50.0945 46.0891 47.364 38.9016 46.2234C40.2414 44.8796 41.0477 43.3523 41.7656 42.0499C42.5375 40.6507 43.2352 39.5421 44.3516 38.7757C45.2219 38.1788 46.7055 37.8202 48.6274 37.7054V38.3327C48.6274 41.0507 50.7383 43.2741 53.4555 43.2741H73.1289C75.8461 43.2741 78.2852 41.0507 78.2852 38.3327V33.4999C78.2852 30.7827 75.8571 28.5929 73.1391 28.5929H53.4641C50.7461 28.5929 48.6266 30.7827 48.6266 33.4991V34.3804C46.0852 34.5054 43.9227 35.0046 42.4532 36.0132C40.6352 37.2609 39.6399 38.9546 38.8258 40.4304C38.0117 41.9062 37.3446 43.1757 36.3758 44.0648C35.5485 44.8226 34.3914 45.3429 32.5086 45.5804C32.2657 43.0819 30.0946 41.2796 27.5375 41.2648H11.6719V27.914L50 5.8046ZM53.4641 31.9921H73.1383C74.0563 31.9921 74.7281 32.5812 74.7281 33.4991V38.3327C74.7281 39.2507 74.0469 39.8741 73.1289 39.8741H53.4547C52.5367 39.8741 51.7899 39.2507 51.7899 38.3327V33.4999C51.7899 32.5819 52.5461 31.9921 53.4641 31.9921ZM11.6719 44.3546H27.5367C28.4539 44.3546 29.136 45.1155 29.136 46.0335V50.8671C29.136 51.7851 28.4547 52.3921 27.5367 52.3913H11.6727L11.6719 44.3546ZM32.6039 49.0288C43.6875 49.203 46.7446 51.996 50.3071 55.1124C53.7274 58.103 57.9352 61.2405 67.9281 61.3734V62.2124C67.9281 64.9296 70.2555 67.0734 72.9727 67.0734H88.3281V72.1351L50 94.2507L11.6727 72.1359V55.7921H27.5391C30.2563 55.7921 32.6031 53.5859 32.6031 50.8679L32.6039 49.0288ZM72.9742 55.7913H88.3297V63.6741H72.975C72.0578 63.6741 71.3289 63.046 71.3289 62.128V57.378C71.3289 56.4609 72.0578 55.7921 72.975 55.7921L72.9742 55.7913Z" fill="white"/>
<path d="M77.3711 30.7266L77.3664 30.7477C77.939 31.532 78.2836 32.4781 78.2836 33.4992V38.3328C78.2836 41.0508 75.8453 43.2742 73.1273 43.2742H53.4546C50.7375 43.2742 48.6265 41.0508 48.6265 38.3328V37.7062C46.7046 37.8203 45.2203 38.1789 44.3515 38.7758C43.2343 39.5414 42.5367 40.6508 41.7648 42.05C41.046 43.3523 40.2414 44.8797 38.9007 46.2234C46.0882 47.3641 49.6617 50.0945 52.5148 52.5891C55.9468 55.5906 58.6992 57.9797 67.9273 58.0477V57.3789C67.9273 54.6617 70.2546 52.3922 72.9718 52.3922H88.3289V43.5898L77.3711 30.7266ZM32.6054 49.0297L32.6031 50.868C32.6031 53.5859 30.2562 55.7922 27.539 55.7922H11.6726V55.8156L43.4492 90.4711L50 94.25L88.3281 72.1352V67.0734H72.9742C70.257 67.0734 67.9296 64.9297 67.9296 62.2125V61.3734C57.9375 61.2406 53.7289 58.1031 50.3093 55.1125C46.746 51.9961 43.689 49.2031 32.6062 49.0289L32.6054 49.0297Z" fill="#720101"/>
</svg>
