<svg width="100" height="100" viewBox="0 0 100 100" fill="none" xmlns="http://www.w3.org/2000/svg">
<g clip-path="url(#clip0_162_8)">
<path d="M49.5766 0.0283203C24.2516 0.0283203 25.8328 11.0538 25.8328 11.0538L25.8609 22.4766H50.0281V25.906H16.2621C16.2621 25.906 0.0566406 24.0609 0.0566406 49.7138C0.0566406 75.3675 14.2012 74.4577 14.2012 74.4577H22.6426V62.5534C22.6426 62.5534 22.1875 48.3534 36.5613 48.3534H60.5309C60.5309 48.3534 73.9977 48.5719 73.9977 35.2871V13.3217C73.9977 13.3217 76.043 0.0283203 49.5766 0.0283203ZM36.2508 7.70989C36.8219 7.70937 37.3874 7.82192 37.9152 8.04108C38.4429 8.26025 38.9224 8.58173 39.3262 8.98713C39.73 9.39253 40.0502 9.8739 40.2685 10.4037C40.4868 10.9335 40.5989 11.5013 40.5984 12.0746C40.5989 12.6479 40.4868 13.2157 40.2685 13.7455C40.0502 14.2753 39.73 14.7567 39.3262 15.1621C38.9224 15.5675 38.4429 15.8889 37.9152 16.1081C37.3874 16.3273 36.8219 16.4398 36.2508 16.4393C35.6797 16.4398 35.1141 16.3273 34.5864 16.1081C34.0587 15.8889 33.5792 15.5675 33.1754 15.1621C32.7716 14.7567 32.4513 14.2753 32.233 13.7455C32.0147 13.2157 31.9026 12.6479 31.9031 12.0746C31.9026 11.5013 32.0147 10.9335 32.233 10.4037C32.4513 9.8739 32.7716 9.39253 33.1754 8.98713C33.5792 8.58173 34.0587 8.26025 34.5864 8.04108C35.1141 7.82192 35.6797 7.70937 36.2508 7.70989Z" fill="url(#paint0_linear_162_8)"/>
<path d="M50.2956 99.6573C75.6207 99.6573 74.0394 88.6318 74.0394 88.6318L74.0113 77.2094H49.8437V73.78H83.6097C83.6097 73.78 99.8152 75.6251 99.8152 49.9714C99.8152 24.3181 85.6707 25.2279 85.6707 25.2279H77.2292V37.1318C77.2292 37.1318 77.6843 51.3318 63.3105 51.3318H39.341C39.341 51.3318 25.8742 51.1134 25.8742 64.3985V86.3643C25.8742 86.3643 23.8292 99.6573 50.2953 99.6573M63.621 91.9765C63.0499 91.977 62.4844 91.8645 61.9567 91.6453C61.4289 91.4261 60.9495 91.1047 60.5456 90.6993C60.1418 90.2938 59.8216 89.8125 59.6033 89.2827C59.385 88.7529 59.2729 88.1851 59.2734 87.6118C59.2728 87.0384 59.3849 86.4706 59.6032 85.9408C59.8215 85.4109 60.1417 84.9295 60.5455 84.5241C60.9493 84.1186 61.4288 83.7971 61.9566 83.5779C62.4843 83.3587 63.0499 83.2462 63.621 83.2467C64.1921 83.2462 64.7577 83.3587 65.2854 83.5779C65.8131 83.797 66.2926 84.1185 66.6964 84.5239C67.1003 84.9293 67.4205 85.4107 67.6388 85.9405C67.8571 86.4703 67.9692 87.0381 67.9687 87.6114C67.9692 88.1847 67.8571 88.7525 67.6388 89.2823C67.4205 89.8121 67.1003 90.2935 66.6964 90.6989C66.2926 91.1043 65.8131 91.4257 65.2854 91.6449C64.7577 91.8641 64.1921 91.977 63.621 91.9765Z" fill="url(#paint1_linear_162_8)"/>
</g>
<defs>
<linearGradient id="paint0_linear_162_8" x1="9.64341" y1="8.98936" x2="59.2723" y2="57.9312" gradientUnits="userSpaceOnUse">
<stop stop-color="#387EB8"/>
<stop offset="1" stop-color="#366994"/>
</linearGradient>
<linearGradient id="paint1_linear_162_8" x1="39.988" y1="40.5415" x2="93.2741" y2="90.7178" gradientUnits="userSpaceOnUse">
<stop stop-color="#FFE052"/>
<stop offset="1" stop-color="#FFC331"/>
</linearGradient>
<clipPath id="clip0_162_8">
<rect width="100" height="100" fill="white"/>
</clipPath>
</defs>
</svg>
